<svg xmlns="http://www.w3.org/2000/svg" viewBox="0 0 1920 1080"><g transform="
          rotate(125 960 540) 
          translate(-988.6528678168836 -556.1172381469969)
          scale(2.0298467373092537)
        "><rect width="1920" height="1080" fill="rgb(212, 151, 37)"></rect><g transform="translate(0, 0)"><path fill="rgb(221, 172, 81)" fill-opacity="1" d="M0,132.647L53.333,127.257C106.667,121.868,213.333,111.088,320,98.139C426.667,85.189,533.333,70.07,640,91.62C746.667,113.17,853.333,171.389,960,171.552C1066.667,171.714,1173.333,113.82,1280,118.312C1386.667,122.804,1493.333,189.682,1600,201.79C1706.667,213.899,1813.333,171.238,1866.667,149.907L1920,128.577L1920,1080L1866.667,1080C1813.333,1080,1706.667,1080,1600,1080C1493.333,1080,1386.667,1080,1280,1080C1173.333,1080,1066.667,1080,960,1080C853.333,1080,746.667,1080,640,1080C533.333,1080,426.667,1080,320,1080C213.333,1080,106.667,1080,53.333,1080L0,1080Z"></path></g><g transform="translate(0, 270)"><path fill="rgb(229, 193, 124)" fill-opacity="1" d="M0,79.153L53.333,67.424C106.667,55.695,213.333,32.237,320,48.516C426.667,64.796,533.333,120.813,640,159.027C746.667,197.24,853.333,217.649,960,206.532C1066.667,195.414,1173.333,152.77,1280,139.593C1386.667,126.416,1493.333,142.707,1600,157.537C1706.667,172.367,1813.333,185.736,1866.667,192.42L1920,199.105L1920,810L1866.667,810C1813.333,810,1706.667,810,1600,810C1493.333,810,1386.667,810,1280,810C1173.333,810,1066.667,810,960,810C853.333,810,746.667,810,640,810C533.333,810,426.667,810,320,810C213.333,810,106.667,810,53.333,810L0,810Z"></path></g><g transform="translate(0, 540)"><path fill="rgb(238, 213, 168)" fill-opacity="1" d="M0,92.09L53.333,109.425C106.667,126.76,213.333,161.431,320,158.46C426.667,155.489,533.333,114.877,640,98.028C746.667,81.179,853.333,88.094,960,78.439C1066.667,68.785,1173.333,42.561,1280,37.294C1386.667,32.027,1493.333,47.715,1600,45.892C1706.667,44.069,1813.333,24.735,1866.667,15.068L1920,5.401L1920,540L1866.667,540C1813.333,540,1706.667,540,1600,540C1493.333,540,1386.667,540,1280,540C1173.333,540,1066.667,540,960,540C853.333,540,746.667,540,640,540C533.333,540,426.667,540,320,540C213.333,540,106.667,540,53.333,540L0,540Z"></path></g><g transform="translate(0, 810)"><path fill="rgb(246, 234, 211)" fill-opacity="1" d="M0,133.984L53.333,117.981C106.667,101.977,213.333,69.97,320,50.431C426.667,30.892,533.333,23.821,640,31.604C746.667,39.386,853.333,62.023,960,89.82C1066.667,117.618,1173.333,150.576,1280,163.69C1386.667,176.803,1493.333,170.071,1600,145.272C1706.667,120.473,1813.333,77.608,1866.667,56.176L1920,34.743L1920,270L1866.667,270C1813.333,270,1706.667,270,1600,270C1493.333,270,1386.667,270,1280,270C1173.333,270,1066.667,270,960,270C853.333,270,746.667,270,640,270C533.333,270,426.667,270,320,270C213.333,270,106.667,270,53.333,270L0,270Z"></path></g></g></svg>